<svg width="94" height="40" xmlns="http://www.w3.org/2000/svg">
 <g>
  <title>Layer 1</title>
  <g id="svg_3">
   <path id="svg_1" d="m8.47337,31.44355l2.21409,2.22927c1.1911,-1.27641 2.87807,-2.07722 4.75764,-2.07722c1.87957,0 3.56654,0.80081 4.7568,2.07722l2.21409,-2.22927c-1.75793,-1.84409 -4.23052,-2.99971 -6.97089,-2.99971c-2.74122,0 -5.20874,1.15562 -6.97173,2.99971m6.97173,3.58172c-0.93261,0 -1.763,0.42575 -2.34081,1.07959l2.34081,2.35517l2.34081,-2.35517c-0.57274,-0.65384 -1.40398,-1.07959 -2.34081,-1.07959m-11.75894,-8.39427l2.37122,2.38051c2.37544,-2.4616 5.70461,-3.99736 9.38772,-3.99736c3.68312,0 7.01144,1.53576 9.38772,3.99736l2.37122,-2.38051l-0.01014,-0.01014c2.2293,-2.64999 3.57161,-6.07461 3.57161,-9.86501c0,-8.41964 -6.74365,-15.25959 -15.34575,-15.25959c-7.01735,0 -14.30755,4.81339 -15.29507,14.22139l0,2.13301c0,1.0382 0.60231,3.33846 0.87601,4.15956c1.08466,2.85188 2.68546,4.62079 2.68546,4.62079m11.75894,-4.99079c-3.25314,0 -6.36351,0.94697 -9.01857,2.70574c-1.74272,-2.0519 -2.79613,-4.70695 -2.79613,-7.5901c0,-6.39815 5.26365,-11.75894 11.78935,-11.75894c6.6313,0 11.78428,5.36079 11.78428,11.75894c0,2.92369 -1.03904,5.5534 -2.75136,7.58503c-2.64914,-1.75793 -5.75529,-2.70067 -9.00758,-2.70067" fill="#FFFFFF"/>
   <path id="svg_2" d="m44.99788,9.42256l-4.86154,0l0,20.58914l10.86688,0l0,-5.14791l-6.00534,0l0,-15.44122zm14.86931,0l-4.86154,0l0,20.58914l4.86154,0l0,-20.58914zm4.00328,0l0,20.58914l4.86155,0l0,-6.57723l6.86275,0l0,-4.57517l-6.86275,0l0,-4.28966l10.72242,0l2.57397,5.29069c-1.71569,3.43138 -3.71776,6.71915 -5.43344,10.15138l5.43344,0c0.85742,-1.71654 1.71568,-3.28862 2.85948,-5.00431c1.14379,1.71569 1.71569,3.28777 2.57395,5.00431l5.71896,0l-5.43343,-10.15138l6.00533,-10.43776l-6.00533,0c-0.85742,1.71569 -1.71569,3.57414 -2.85948,5.28983c-1.1438,-1.71569 -2.00206,-3.57414 -2.57396,-5.28983l-18.44346,0z" fill="#FFFFFF"/>
  </g>
 </g>
</svg>